<?xml version="1.0" encoding="UTF-8" standalone="no"?>
<!-- Created with Inkscape (http://www.inkscape.org/) -->

<svg
   xmlns:dc="http://purl.org/dc/elements/1.1/"
   xmlns:cc="http://creativecommons.org/ns#"
   xmlns:rdf="http://www.w3.org/1999/02/22-rdf-syntax-ns#"
   xmlns:svg="http://www.w3.org/2000/svg"
   xmlns="http://www.w3.org/2000/svg"
   xmlns:xlink="http://www.w3.org/1999/xlink"
   xmlns:sodipodi="http://sodipodi.sourceforge.net/DTD/sodipodi-0.dtd"
   xmlns:inkscape="http://www.inkscape.org/namespaces/inkscape"
   width="96"
   height="96"
   id="svg6517"
   version="1.1"
   inkscape:version="0.48.2 r9819"
   sodipodi:docname="selenium-charm-icon2.svg">
  <defs
     id="defs6519">
    <linearGradient
       inkscape:collect="always"
       xlink:href="#linearGradient3160-7-3"
       id="linearGradient6461"
       gradientUnits="userSpaceOnUse"
       x1="0"
       y1="970.29498"
       x2="144"
       y2="970.29498"
       gradientTransform="matrix(0,-0.66666669,0.6660448,0,-866.25992,731.29077)" />
    <linearGradient
       id="Background">
      <stop
         id="stop4178"
         offset="0"
         style="stop-color:#b8b8b8;stop-opacity:1" />
      <stop
         id="stop4180"
         offset="1"
         style="stop-color:#c9c9c9;stop-opacity:1" />
    </linearGradient>
    <filter
       style="color-interpolation-filters:sRGB;"
       inkscape:label="Inner Shadow"
       id="filter1121">
      <feFlood
         flood-opacity="0.59999999999999998"
         flood-color="rgb(0,0,0)"
         result="flood"
         id="feFlood1123" />
      <feComposite
         in="flood"
         in2="SourceGraphic"
         operator="out"
         result="composite1"
         id="feComposite1125" />
      <feGaussianBlur
         in="composite1"
         stdDeviation="1"
         result="blur"
         id="feGaussianBlur1127" />
      <feOffset
         dx="0"
         dy="2"
         result="offset"
         id="feOffset1129" />
      <feComposite
         in="offset"
         in2="SourceGraphic"
         operator="atop"
         result="composite2"
         id="feComposite1131" />
    </filter>
    <filter
       style="color-interpolation-filters:sRGB;"
       inkscape:label="Drop Shadow"
       id="filter950">
      <feFlood
         flood-opacity="0.25"
         flood-color="rgb(0,0,0)"
         result="flood"
         id="feFlood952" />
      <feComposite
         in="flood"
         in2="SourceGraphic"
         operator="in"
         result="composite1"
         id="feComposite954" />
      <feGaussianBlur
         in="composite1"
         stdDeviation="1"
         result="blur"
         id="feGaussianBlur956" />
      <feOffset
         dx="0"
         dy="1"
         result="offset"
         id="feOffset958" />
      <feComposite
         in="SourceGraphic"
         in2="offset"
         operator="over"
         result="composite2"
         id="feComposite960" />
    </filter>
    <clipPath
       clipPathUnits="userSpaceOnUse"
       id="clipPath873">
      <g
         transform="matrix(0,-0.66666667,0.66604479,0,-258.25992,677.00001)"
         id="g875"
         inkscape:label="Layer 1"
         style="fill:#ff00ff;fill-opacity:1;stroke:none;display:inline">
        <path
           style="fill:#ff00ff;fill-opacity:1;stroke:none;display:inline"
           d="m 46.702703,898.22775 50.594594,0 C 138.16216,898.22775 144,904.06497 144,944.92583 l 0,50.73846 c 0,40.86071 -5.83784,46.69791 -46.702703,46.69791 l -50.594594,0 C 5.8378378,1042.3622 0,1036.525 0,995.66429 L 0,944.92583 C 0,904.06497 5.8378378,898.22775 46.702703,898.22775 Z"
           id="path877"
           inkscape:connector-curvature="0"
           sodipodi:nodetypes="sssssssss" />
      </g>
    </clipPath>
    <filter
       inkscape:collect="always"
       id="filter891"
       inkscape:label="Badge Shadow">
      <feGaussianBlur
         inkscape:collect="always"
         stdDeviation="0.71999962"
         id="feGaussianBlur893" />
    </filter>
    <filter
       color-interpolation-filters="sRGB"
       inkscape:collect="always"
       id="filter4131-3-6"
       x="-0.27940416"
       width="1.5588083"
       y="-0.31575745"
       height="1.6315149">
      <feGaussianBlur
         inkscape:collect="always"
         stdDeviation="46.887951"
         id="feGaussianBlur4133-1-0" />
    </filter>
    <linearGradient
       inkscape:collect="always"
       xlink:href="#linearGradient3571-9-6"
       id="linearGradient5235-6"
       gradientUnits="userSpaceOnUse"
       x1="499.9826"
       y1="373.98297"
       x2="600.9422"
       y2="174.81282" />
    <linearGradient
       id="linearGradient3571-9-6">
      <stop
         style="stop-color:#26761e;stop-opacity:1;"
         offset="0"
         id="stop3573-86-1" />
      <stop
         style="stop-color:#2cb134;stop-opacity:0.99607843;"
         offset="1"
         id="stop3575-5-8" />
    </linearGradient>
    <radialGradient
       inkscape:collect="always"
       xlink:href="#linearGradient3593-0-9"
       id="radialGradient5237-4"
       gradientUnits="userSpaceOnUse"
       gradientTransform="matrix(0.5716748,0.6230185,-0.666331,0.6114179,361.64298,-271.53663)"
       cx="536.92163"
       cy="257.29892"
       fx="536.92163"
       fy="257.29892"
       r="201.37689" />
    <linearGradient
       id="linearGradient3593-0-9">
      <stop
         style="stop-color:#ffffff;stop-opacity:1;"
         offset="0"
         id="stop3595-2-6" />
      <stop
         style="stop-color:#ffffff;stop-opacity:0;"
         offset="1"
         id="stop3597-8-3" />
    </linearGradient>
    <linearGradient
       inkscape:collect="always"
       xlink:href="#linearGradient3160-7-3"
       id="linearGradient5682"
       gradientUnits="userSpaceOnUse"
       gradientTransform="matrix(0.43421297,0,0,0.43421297,-475.09585,616.4381)"
       x1="160.79538"
       y1="229.54926"
       x2="160.79538"
       y2="62.100281" />
    <linearGradient
       id="linearGradient3160-7-3">
      <stop
         style="stop-color:#4b4b4b;stop-opacity:1;"
         offset="0"
         id="stop3162-7-4" />
      <stop
         style="stop-color:#ffffff;stop-opacity:1;"
         offset="1"
         id="stop3164-9-4" />
    </linearGradient>
    <radialGradient
       inkscape:collect="always"
       xlink:href="#linearGradient3605-8-1"
       id="radialGradient5685"
       gradientUnits="userSpaceOnUse"
       gradientTransform="matrix(0.12477202,0,0,0.12477202,-454.15177,632.52989)"
       cx="150.5538"
       cy="160.69841"
       fx="150.5538"
       fy="160.69841"
       r="312.59076" />
    <linearGradient
       id="linearGradient3605-8-1">
      <stop
         style="stop-color:#ffffff;stop-opacity:1;"
         offset="0"
         id="stop3607-7-3" />
      <stop
         style="stop-color:#ffffff;stop-opacity:0;"
         offset="1"
         id="stop3609-4-8" />
    </linearGradient>
    <radialGradient
       inkscape:collect="always"
       xlink:href="#linearGradient3308-4-9"
       id="radialGradient5688"
       gradientUnits="userSpaceOnUse"
       gradientTransform="matrix(1.4473766,-1.1126663e-8,0,1.1739832,-574.10375,544.31648)"
       cx="72.080688"
       cy="237.3118"
       fx="72.080688"
       fy="237.3118"
       r="89.823624" />
    <linearGradient
       id="linearGradient3308-4-9">
      <stop
         id="stop3310-1-0"
         offset="0"
         style="stop-color:#212121;stop-opacity:1;" />
      <stop
         id="stop3312-1-0"
         offset="1"
         style="stop-color:#b8b8b8;stop-opacity:1;" />
    </linearGradient>
    <radialGradient
       r="89.823624"
       fy="237.3118"
       fx="72.080688"
       cy="237.3118"
       cx="72.080688"
       gradientTransform="matrix(1.4473766,-1.1126663e-8,0,1.1739832,-549.10376,439.31648)"
       gradientUnits="userSpaceOnUse"
       id="radialGradient6301"
       xlink:href="#linearGradient3308-4-9"
       inkscape:collect="always" />
    <linearGradient
       id="linearGradient3571-9-6-2">
      <stop
         style="stop-color:#26761e;stop-opacity:1;"
         offset="0"
         id="stop3573-86-1-7" />
      <stop
         style="stop-color:#2cb134;stop-opacity:0.99607843;"
         offset="1"
         id="stop3575-5-8-2" />
    </linearGradient>
    <radialGradient
       inkscape:collect="always"
       xlink:href="#linearGradient3593-0-9-4"
       id="radialGradient5237-4-6"
       gradientUnits="userSpaceOnUse"
       gradientTransform="matrix(0.5716748,0.6230185,-0.666331,0.6114179,361.64298,-271.53663)"
       cx="536.92163"
       cy="257.29892"
       fx="536.92163"
       fy="257.29892"
       r="201.37689" />
    <linearGradient
       id="linearGradient3593-0-9-4">
      <stop
         style="stop-color:#ffffff;stop-opacity:1;"
         offset="0"
         id="stop3595-2-6-7" />
      <stop
         style="stop-color:#ffffff;stop-opacity:0;"
         offset="1"
         id="stop3597-8-3-1" />
    </linearGradient>
    <filter
       color-interpolation-filters="sRGB"
       inkscape:collect="always"
       id="filter4131-3-6-8"
       x="-0.27940416"
       width="1.5588083"
       y="-0.31575745"
       height="1.6315149">
      <feGaussianBlur
         inkscape:collect="always"
         stdDeviation="46.887951"
         id="feGaussianBlur4133-1-0-3" />
    </filter>
    <linearGradient
       inkscape:collect="always"
       xlink:href="#linearGradient3571-9-6-8"
       id="linearGradient5235-6-2"
       gradientUnits="userSpaceOnUse"
       x1="499.9826"
       y1="373.98297"
       x2="600.9422"
       y2="174.81282" />
    <linearGradient
       id="linearGradient3571-9-6-8">
      <stop
         style="stop-color:#26761e;stop-opacity:1;"
         offset="0"
         id="stop3573-86-1-6" />
      <stop
         style="stop-color:#2cb134;stop-opacity:0.99607843;"
         offset="1"
         id="stop3575-5-8-0" />
    </linearGradient>
    <radialGradient
       inkscape:collect="always"
       xlink:href="#linearGradient3593-0-9-2"
       id="radialGradient5237-4-1"
       gradientUnits="userSpaceOnUse"
       gradientTransform="matrix(0.5716748,0.6230185,-0.666331,0.6114179,361.64298,-271.53663)"
       cx="536.92163"
       cy="257.29892"
       fx="536.92163"
       fy="257.29892"
       r="201.37689" />
    <linearGradient
       id="linearGradient3593-0-9-2">
      <stop
         style="stop-color:#ffffff;stop-opacity:1;"
         offset="0"
         id="stop3595-2-6-6" />
      <stop
         style="stop-color:#ffffff;stop-opacity:0;"
         offset="1"
         id="stop3597-8-3-0" />
    </linearGradient>
    <radialGradient
       inkscape:collect="always"
       xlink:href="#linearGradient3593-0-9-2"
       id="radialGradient7056"
       gradientUnits="userSpaceOnUse"
       gradientTransform="matrix(0.05349676,0.05830145,-0.0623546,0.05721588,-160.91357,620.70852)"
       cx="536.92163"
       cy="257.29892"
       fx="536.92163"
       fy="257.29892"
       r="201.37689" />
    <linearGradient
       inkscape:collect="always"
       xlink:href="#linearGradient3571-9-6-8"
       id="linearGradient7059"
       gradientUnits="userSpaceOnUse"
       x1="499.9826"
       y1="373.98297"
       x2="600.9422"
       y2="174.81282"
       gradientTransform="matrix(0.09357901,0,0,0.09357901,-249.75576,641.11865)" />
  </defs>
  <sodipodi:namedview
     id="base"
     pagecolor="#ffffff"
     bordercolor="#666666"
     borderopacity="1.0"
     inkscape:pageopacity="0.0"
     inkscape:pageshadow="2"
     inkscape:zoom="4.0745362"
     inkscape:cx="-22.226162"
     inkscape:cy="39.201101"
     inkscape:document-units="px"
     inkscape:current-layer="layer1"
     showgrid="true"
     fit-margin-top="0"
     fit-margin-left="0"
     fit-margin-right="0"
     fit-margin-bottom="0"
     inkscape:window-width="1920"
     inkscape:window-height="1058"
     inkscape:window-x="1912"
     inkscape:window-y="-8"
     inkscape:window-maximized="1"
     showborder="true"
     showguides="true"
     inkscape:guide-bbox="true"
     inkscape:showpageshadow="false">
    <inkscape:grid
       type="xygrid"
       id="grid821" />
    <sodipodi:guide
       orientation="1,0"
       position="16,48"
       id="guide823" />
    <sodipodi:guide
       orientation="0,1"
       position="64,80"
       id="guide825" />
    <sodipodi:guide
       orientation="1,0"
       position="80,40"
       id="guide827" />
    <sodipodi:guide
       orientation="0,1"
       position="64,16"
       id="guide829" />
  </sodipodi:namedview>
  <metadata
     id="metadata6522">
    <rdf:RDF>
      <cc:Work
         rdf:about="">
        <dc:format>image/svg+xml</dc:format>
        <dc:type
           rdf:resource="http://purl.org/dc/dcmitype/StillImage" />
        <dc:title />
      </cc:Work>
    </rdf:RDF>
  </metadata>
  <g
     inkscape:label="BACKGROUND"
     inkscape:groupmode="layer"
     id="layer1"
     transform="translate(268,-635.29076)"
     style="display:inline">
    <path
       style="fill:url(#linearGradient6461);fill-opacity:1.0;stroke:none;display:inline;filter:url(#filter1121)"
       d="m -268,700.15563 0,-33.72973 c 0,-27.24324 3.88785,-31.13513 31.10302,-31.13513 l 33.79408,0 c 27.21507,0 31.1029,3.89189 31.1029,31.13513 l 0,33.72973 c 0,27.24325 -3.88783,31.13514 -31.1029,31.13514 l -33.79408,0 C -264.11215,731.29077 -268,727.39888 -268,700.15563 Z"
       id="path6455"
       inkscape:connector-curvature="0"
       sodipodi:nodetypes="sssssssss" />
    <path
       inkscape:connector-curvature="0"
       style="font-size:432.16552734px;font-style:normal;font-variant:normal;font-weight:normal;font-stretch:normal;fill:#eeeeee;fill-opacity:1;stroke:#000000;stroke-width:1.24772024;stroke-linecap:butt;stroke-linejoin:miter;stroke-miterlimit:4;stroke-opacity:0.70588235;stroke-dasharray:none;display:inline;font-family:Franklin Gothic Demi;-inkscape-font-specification:Franklin Gothic Demi"
       d="m -221.86174,686.18289 -7.16154,2.39596 c -0.96542,-2.84352 -3.01032,-4.2653 -6.1347,-4.26533 -3.33504,3e-5 -5.00255,1.07953 -5.00254,3.23849 -1e-5,0.86011 0.31155,1.58855 0.93468,2.18532 0.62311,0.59682 2.03172,1.11463 4.22584,1.55343 3.66851,0.73724 6.35408,1.48323 8.05673,2.23798 1.70259,0.75479 3.13753,1.97032 4.30482,3.64659 1.16723,1.6763 1.75086,3.55006 1.75089,5.62128 -3e-5,3.24727 -1.25067,6.05572 -3.75191,8.42534 -2.5013,2.36962 -6.20932,3.55444 -11.12408,3.55444 -3.6861,0 -6.82366,-0.83815 -9.41268,-2.51444 -2.58904,-1.67629 -4.29605,-4.16439 -5.12103,-7.46432 l 7.79344,-1.76406 c 0.87763,3.35259 3.31746,5.02888 7.31951,5.02888 1.93079,0 3.37012,-0.37299 4.31799,-1.119 0.94783,-0.74598 1.42175,-1.63678 1.42177,-2.67241 -2e-5,-1.05315 -0.43006,-1.86936 -1.29013,-2.44861 -0.8601,-0.57923 -2.51884,-1.12337 -4.97621,-1.63241 -4.58129,-0.94784 -7.84611,-2.24235 -9.79446,-3.88355 -1.94836,-1.64117 -2.92254,-4.04151 -2.92254,-7.20104 0,-3.19458 1.16287,-5.88893 3.48862,-8.08306 2.32574,-2.19406 5.48085,-3.29111 9.46534,-3.29114 7.0562,3e-5 11.59359,2.81725 13.61219,8.45166 l 0,0 z m 28.2158,16.06081 -17.11397,0 c -0.0176,0.47393 -0.0263,0.88642 -0.0263,1.23747 -10e-6,1.89571 0.50463,3.32626 1.51393,4.29165 1.00927,0.96541 2.21603,1.44811 3.62026,1.44811 2.61535,0 4.18632,-1.39544 4.71293,-4.18634 l 7.10888,0.52658 c -1.98349,6.14348 -6.01186,9.21522 -12.0851,9.21522 -2.65048,0 -4.90163,-0.53097 -6.75343,-1.59292 -1.85183,-1.06194 -3.37892,-2.61097 -4.58128,-4.6471 -1.20237,-2.03612 -1.80355,-4.47595 -1.80355,-7.31951 0,-4.23021 1.20675,-7.64422 3.62026,-10.24205 2.4135,-2.59779 5.51595,-3.8967 9.30737,-3.89672 3.42277,2e-5 6.35847,1.20678 8.80711,3.62026 2.44859,2.41353 3.67289,6.26197 3.67292,11.54535 l 0,0 z m -17.1403,-4.55495 9.45218,0 c -0.24576,-3.65096 -1.74652,-5.47645 -4.50229,-5.47647 -2.94888,2e-5 -4.59884,1.82551 -4.94989,5.47647 l 0,0 z"
       id="path4256-1-5"
       sodipodi:nodetypes="cccsscssssssccsssscssscccccsssccsssssccccccscc" />
    <path
       inkscape:connector-curvature="0"
       style="fill:#00b400;fill-opacity:1;fill-rule:evenodd;stroke:#000000;stroke-width:0.93579012;stroke-linecap:butt;stroke-linejoin:miter;stroke-miterlimit:4;stroke-opacity:0.70588235;stroke-dasharray:none"
       d="m -216.74056,672.26346 11.00678,11.74056 26.68252,-27.62659 -3.66893,-6.45731 -22.27981,23.37064 -7.63137,-7.1911 -4.10919,6.1638 z"
       id="path3569-6-9-7"
       sodipodi:nodetypes="ccccccc" />
  </g>
  <g
     inkscape:groupmode="layer"
     id="layer3"
     inkscape:label="PLACE YOUR PICTOGRAM HERE"
     style="display:inline" />
  <g
     inkscape:groupmode="layer"
     id="layer2"
     inkscape:label="BADGE"
     style="display:none"
     sodipodi:insensitive="true">
    <g
       style="display:inline"
       transform="translate(-340.00001,-581)"
       id="g4394"
       clip-path="none">
      <g
         id="g855">
        <g
           inkscape:groupmode="maskhelper"
           id="g870"
           clip-path="url(#clipPath873)"
           style="opacity:0.6;filter:url(#filter891)">
          <path
             transform="matrix(1.4999992,0,0,1.4999992,-29.999795,-237.54282)"
             d="m 264,552.36218 c 0,6.62742 -5.37258,12 -12,12 -6.62742,0 -12,-5.37258 -12,-12 0,-6.62741 5.37258,-12 12,-12 6.62742,0 12,5.37259 12,12 z"
             sodipodi:ry="12"
             sodipodi:rx="12"
             sodipodi:cy="552.36218"
             sodipodi:cx="252"
             id="path844"
             style="color:#000000;fill:#000000;fill-opacity:1;fill-rule:nonzero;stroke:none;stroke-width:4;marker:none;visibility:visible;display:inline;overflow:visible;enable-background:accumulate"
             sodipodi:type="arc" />
        </g>
        <g
           id="g862">
          <path
             sodipodi:type="arc"
             style="color:#000000;fill:#f5f5f5;fill-opacity:1;fill-rule:nonzero;stroke:none;stroke-width:4;marker:none;visibility:visible;display:inline;overflow:visible;enable-background:accumulate"
             id="path4398"
             sodipodi:cx="252"
             sodipodi:cy="552.36218"
             sodipodi:rx="12"
             sodipodi:ry="12"
             d="m 264,552.36218 c 0,6.62742 -5.37258,12 -12,12 -6.62742,0 -12,-5.37258 -12,-12 0,-6.62741 5.37258,-12 12,-12 6.62742,0 12,5.37259 12,12 z"
             transform="matrix(1.4999992,0,0,1.4999992,-29.999795,-238.54282)" />
          <path
             transform="matrix(1.25,0,0,1.25,33,-100.45273)"
             d="m 264,552.36218 c 0,6.62742 -5.37258,12 -12,12 -6.62742,0 -12,-5.37258 -12,-12 0,-6.62741 5.37258,-12 12,-12 6.62742,0 12,5.37259 12,12 z"
             sodipodi:ry="12"
             sodipodi:rx="12"
             sodipodi:cy="552.36218"
             sodipodi:cx="252"
             id="path4400"
             style="color:#000000;fill:#dd4814;fill-opacity:1;fill-rule:nonzero;stroke:none;stroke-width:4;marker:none;visibility:visible;display:inline;overflow:visible;enable-background:accumulate"
             sodipodi:type="arc" />
          <path
             sodipodi:type="star"
             style="color:#000000;fill:#f5f5f5;fill-opacity:1;fill-rule:nonzero;stroke:none;stroke-width:3;marker:none;visibility:visible;display:inline;overflow:visible;enable-background:accumulate"
             id="path4459"
             sodipodi:sides="5"
             sodipodi:cx="666.19574"
             sodipodi:cy="589.50385"
             sodipodi:r1="7.2431178"
             sodipodi:r2="4.3458705"
             sodipodi:arg1="1.0471976"
             sodipodi:arg2="1.6755161"
             inkscape:flatsided="false"
             inkscape:rounded="0.1"
             inkscape:randomized="0"
             d="m 669.8173,595.77657 c -0.39132,0.22593 -3.62645,-1.90343 -4.07583,-1.95066 -0.44938,-0.0472 -4.05653,1.36297 -4.39232,1.06062 -0.3358,-0.30235 0.68963,-4.03715 0.59569,-4.47913 -0.0939,-0.44198 -2.5498,-3.43681 -2.36602,-3.8496 0.18379,-0.41279 4.05267,-0.59166 4.44398,-0.81759 0.39132,-0.22593 2.48067,-3.48704 2.93005,-3.4398 0.44938,0.0472 1.81505,3.67147 2.15084,3.97382 0.3358,0.30236 4.08294,1.2817 4.17689,1.72369 0.0939,0.44198 -2.9309,2.86076 -3.11469,3.27355 -0.18379,0.41279 0.0427,4.27917 -0.34859,4.5051 z"
             transform="matrix(1.511423,-0.16366377,0.16366377,1.511423,-755.37346,-191.93651)" />
        </g>
      </g>
    </g>
  </g>
</svg>
